<?xml version="1.0" encoding="UTF-8"?>
<svg width="18" height="18" version="1.1" viewBox="0 0 18 18" xml:space="preserve" xmlns="http://www.w3.org/2000/svg"><g fill="#fff">
  
  
  
  <path d="m17.3 8h-16.6c-0.188 0-0.35-0.0496-0.487-0.149-0.137-0.0988-0.205-0.216-0.205-0.351v-1c0-0.136 0.0685-0.253 0.205-0.352 0.137-0.099 0.299-0.148 0.487-0.148h16.6c0.188 0 0.35 0.0494 0.487 0.148 0.137 0.0989 0.205 0.216 0.205 0.352v1c0 0.135-0.0685 0.253-0.206 0.351-0.137 0.099-0.299 0.149-0.487 0.149z"/><g>
  <path d="m17.1 4h-16.2c-0.244 0-0.455-0.0495-0.633-0.148-0.178-0.099-0.267-0.216-0.267-0.352v-1c0-0.135 0.0892-0.253 0.267-0.352 0.178-0.0988 0.389-0.148 0.633-0.148h16.2c0.244 0 0.455 0.0496 0.633 0.148 0.178 0.099 0.267 0.216 0.267 0.352v1c0 0.135-0.0891 0.253-0.267 0.352-0.178 0.0989-0.389 0.148-0.633 0.148z"/>
  <path d="m0.191 14.1c0.127-0.099 0.278-0.148 0.452-0.148h16.7c0.174 0 0.325 0.0495 0.452 0.148 0.127 0.0989 0.191 0.216 0.191 0.352v1c0 0.135-0.0636 0.253-0.191 0.352-0.127 0.0988-0.278 0.148-0.452 0.148h-16.7c-0.174 0-0.325-0.0496-0.452-0.148-0.127-0.0991-0.191-0.216-0.191-0.352v-1c7.02e-5 -0.135 0.0637-0.253 0.191-0.352z"/>
  <path d="m17.2 12h-16.4c-0.222 0-0.413-0.0496-0.575-0.149-0.162-0.0989-0.243-0.216-0.243-0.352v-1c0-0.135 0.0811-0.253 0.243-0.352 0.162-0.099 0.354-0.149 0.575-0.149h16.4c0.222 0 0.413 0.0496 0.575 0.149 0.162 0.0989 0.243 0.216 0.243 0.352v1c0 0.135-0.081 0.253-0.243 0.352-0.162 0.099-0.354 0.148-0.575 0.148z"/>
</g></g></svg>
