<?xml version="1.0" encoding="UTF-8"?>
<svg width="32" height="32" version="1.1" viewBox="0 0 32 32" xmlns="http://www.w3.org/2000/svg">
 <rect transform="rotate(-90)" x="-30" width="26" height="32" rx="3" ry="3" fill="#77c10d" stroke-dashoffset="12.8" stroke-linejoin="bevel" stroke-opacity=".6" stroke-width="2" style="paint-order:stroke markers fill"/>
 <g fill="#fff">
  <g stroke-dashoffset="12.8" stroke-linejoin="bevel" stroke-opacity=".6" stroke-width="2">
   <rect x="18" y="10" width="10" height="3" rx="1" ry="1" style="paint-order:stroke markers fill"/>
   <rect x="18" y="15" width="10" height="3" rx="1" ry="1" style="paint-order:stroke markers fill"/>
   <rect x="17.8" y="20" width="10" height="3" rx="1" ry="1" style="paint-order:stroke markers fill"/>
  </g>
  <g transform="matrix(.554 0 0 .554 2.41 9)" stroke-width="38.5">
   <path d="m4.07 18h15.7a3 3 0 0 0 2.82-4.02l-2.85-7.88a8.32 8.32 0 0 0-8.02-6.09 8.32 8.32 0 0 0-8.12 6.52l-2.35 7.6a3 3 0 0 0 2.87 3.88z"/>
   <path d="m7.1 20a5 5 0 0 0 9.8 0z"/>
  </g>
 </g>
</svg>
