<?xml version="1.0" encoding="UTF-8"?>
<svg width="32" height="32" enable-background="new 0 0 1000 1000" version="1.1" viewBox="0 0 32 32" xml:space="preserve" xmlns="http://www.w3.org/2000/svg"><path d="m3.43 1.5h25.1c1.07 0 1.93 0.862 1.93 1.93v25.1c0 1.07-0.862 1.93-1.93 1.93h-25.1c-1.07 0-1.93-0.862-1.93-1.93v-25.1c0-1.07 0.862-1.93 1.93-1.93z" fill="none" stroke="#fff" stroke-linecap="round" stroke-linejoin="round" stroke-width="3" style="paint-order:markers stroke fill"/><path d="m6 26v-4h20v4z" fill="#fff"/><path d="m16 18.8q-1.67 0-2.83-1.2t-1.17-2.91q0-0.971 0.444-2.11t1.22-2.34q0.444-0.743 1.08-1.6 0.639-0.857 1.25-1.6 0.611 0.743 1.25 1.6 0.639 0.857 1.08 1.6 0.778 1.2 1.22 2.34 0.444 1.14 0.444 2.11 0 1.71-1.17 2.91-1.17 1.2-2.83 1.2z" fill="#fff"/></svg>
