<?xml version="1.0" encoding="UTF-8" standalone="no"?>
<svg
   version="1.1"
   id="Layer_1"
   x="0px"
   y="0px"
   viewBox="0 0 32 32.000001"
   xml:space="preserve"
   sodipodi:docname="etsy.svg"
   width="32"
   height="32"
   inkscape:version="1.1 (c68e22c387, 2021-05-23)"
   xmlns:inkscape="http://www.inkscape.org/namespaces/inkscape"
   xmlns:sodipodi="http://sodipodi.sourceforge.net/DTD/sodipodi-0.dtd"
   xmlns="http://www.w3.org/2000/svg"
   xmlns:svg="http://www.w3.org/2000/svg"><defs
     id="defs844" /><sodipodi:namedview
     id="namedview842"
     pagecolor="#ffffff"
     bordercolor="#666666"
     borderopacity="1.0"
     inkscape:pageshadow="2"
     inkscape:pageopacity="0.0"
     inkscape:pagecheckerboard="0"
     showgrid="false"
     width="32px"
     inkscape:zoom="6.3395182"
     inkscape:cx="54.183928"
     inkscape:cy="61.44"
     inkscape:window-width="3440"
     inkscape:window-height="1377"
     inkscape:window-x="-8"
     inkscape:window-y="-8"
     inkscape:window-maximized="1"
     inkscape:current-layer="Layer_1" /><style
     type="text/css"
     id="style835">.st0{fill:#F45800;}</style><path
     id="path1028"
     style="fill:#f45800;stroke-width:0;stroke-linejoin:round;stroke-dashoffset:12.8"
     d="M 32,16 A 16,16 0 0 1 16,32 16,16 0 0 1 0,16 16,16 0 0 1 16,0 16,16 0 0 1 32,16 Z" /><g
     id="g839"
     transform="matrix(0.14648437,0,0,0.14648437,8,7)"
     style="fill:#ffffff;fill-opacity:1;stroke-width:6.82667"><path
       class="st0"
       d="m 36.25,12.3 v 45.48 c 0,0 16.02,0 24.6,-0.65 6.74,-1.18 7.99,-1.83 9.23,-8.58 l 2.48,-9.88 h 7.33 L 78.65,60.26 79.3,82.38 H 71.9 L 70.07,73.74 C 68.24,67.59 65.76,66.35 60.84,65.75 54.69,65.1 36.24,65.1 36.24,65.1 v 38.14 c 0,7.33 3.72,10.47 12.3,10.47 h 25.84 c 7.99,0 15.96,-0.65 20.94,-12.3 L 102,86.63 h 6.21 c -0.65,3.07 -3.72,30.16 -4.31,36.25 0,0 -23.36,-0.59 -33.18,-0.59 H 26.42 L 0,122.88 v -6.68 l 8.58,-1.89 c 6.21,-1.24 8.04,-3.07 8.04,-7.99 0,0 0.65,-16.61 0.65,-44.3 0,-27.61 -0.65,-44.24 -0.65,-44.24 0,-5.5 -1.83,-6.74 -8.04,-7.99 L 0,7.98 V 1.24 l 25.84,0.53 h 49.2 c 9.82,0 26.37,-1.77 26.37,-1.77 0,0 -0.59,10.41 -1.24,35.01 H 93.43 L 90.95,26.37 C 88.52,15.31 84.85,9.81 78.05,9.81 H 39.38 c -3.13,0.01 -3.13,0.6 -3.13,2.49 z"
       id="path837"
       style="fill:#ffffff;fill-opacity:1;stroke-width:6.82667" /></g></svg>
