<svg width="50" height="48" viewBox="0 0 50 48" fill="none" xmlns="http://www.w3.org/2000/svg">
<path fill-rule="evenodd" clip-rule="evenodd" d="M16.7922 10.2604C14.7399 10.2604 12.8027 11.0755 11.3405 12.5533C9.84814 14.065 9.02878 16.0759 9.03556 18.2127C9.03556 20.3515 9.85985 22.3605 11.3562 23.875L24.6366 37.3137L37.9396 23.9013C39.4281 22.3952 40.2494 20.3834 40.2494 18.24C40.2562 16.0919 39.4398 14.0829 37.9503 12.5778H37.9493C36.4881 11.098 34.5509 10.282 32.4928 10.282C30.4336 10.282 28.4935 11.0999 27.0274 12.5853L24.6532 14.9863L22.2644 12.5684C20.7944 11.0811 18.8504 10.2604 16.7922 10.2604ZM25.3341 38.0188L25.337 38.0226C25.336 38.0207 25.3351 38.0207 25.3341 38.0188ZM23.9275 38.0282C23.9265 38.0282 23.9246 38.0301 23.9236 38.032L23.9275 38.0282ZM24.6308 41.5C23.8378 41.5 23.0642 41.1775 22.5083 40.6135L8.53033 26.4678C6.33952 24.2519 5.13384 21.3235 5.13384 18.2184C5.12511 15.1132 6.32586 12.1792 8.51473 9.96146C10.7221 7.72871 13.6611 6.5 16.7922 6.5C19.7273 6.5 22.4965 7.58112 24.6552 9.55533C26.806 7.59428 29.5655 6.52162 32.4928 6.52162C35.6297 6.52162 38.5716 7.75222 40.7771 9.98496C42.9611 12.1961 44.1599 15.1283 44.1512 18.2456C44.1512 21.3546 42.9464 24.2867 40.7615 26.4969L26.7484 40.6266C26.2032 41.1794 25.4297 41.5 24.6308 41.5Z" fill="white" stroke="white"/>
</svg>
