<?xml version="1.0" encoding="UTF-8"?>
<svg width="32" height="32" version="1.1" viewBox="0 0 32 32" xmlns="http://www.w3.org/2000/svg">
 <rect x="3" width="26" height="32" rx="3" ry="3" fill="#77c10d" stroke-dashoffset="12.8" stroke-linejoin="bevel" stroke-opacity=".6" stroke-width="2" style="paint-order:stroke markers fill"/>
 <g fill="#fff">
  <rect x="6" y="20" width="20" height="2.5" rx="1" ry="1" stroke-dashoffset="12.8" stroke-linejoin="bevel" stroke-opacity=".6" stroke-width="2" style="paint-order:stroke markers fill"/>
  <rect x="6" y="25" width="20" height="2.5" rx="1" ry="1" stroke-dashoffset="12.8" stroke-linejoin="bevel" stroke-opacity=".6" stroke-width="2" style="paint-order:stroke markers fill"/>
  <path d="m19.2 4a3.73 3.73 0 0 0-3.21 1.92 3.73 3.73 0 0 0-3.21-1.92 3.97 3.97 0 0 0-3.79 4.11c0 2.65 2.79 5.55 5.13 7.51a2.9 2.9 0 0 0 3.73 0c2.34-1.96 5.13-4.86 5.13-7.51a3.97 3.97 0 0 0-3.79-4.11z" stroke-width="21.3"/>
 </g>
</svg>
