<?xml version="1.0" encoding="UTF-8"?>
<svg width="32" height="32" version="1.1" viewBox="0 0 8.47 8.47" xmlns="http://www.w3.org/2000/svg">
 <g>
  <rect y="2.78e-17" width="8.47" height="8.47" rx="1.32" ry="1.32" fill="#46e68f" stroke-width="0"/>
  <path d="m5.44 2.05v1.9c0 1.63-2.28 1.63-2.28 0v-1.9c0-1.68 2.28-1.68 2.28 0zm-0.856 4.59v1.29a0.283 0.283 0 0 1-0.566 0v-1.29a2.46 2.46 0 0 1-0.752-0.212 2.51 2.51 0 0 1-0.715-0.499l-3e-3 -0.00543a2.49 2.49 0 0 1-0.536-0.799 2.46 2.46 0 0 1-0.188-0.947 0.282 0.282 0 0 1 0.483-0.2l6e-3 0.00604a0.283 0.283 0 0 1 0.0767 0.194 1.89 1.89 0 0 0 0.145 0.728 1.93 1.93 0 0 0 1.04 1.04 1.9 1.9 0 0 0 1.46 0 1.93 1.93 0 0 0 0.621-0.417l0.0048-0.00423a1.93 1.93 0 0 0 0.412-0.617 1.89 1.89 0 0 0 0.143-0.73 0.283 0.283 0 0 1 0.566 0 2.45 2.45 0 0 1-0.188 0.945 2.5 2.5 0 0 1-0.539 0.806l-0.0054 0.00483a2.5 2.5 0 0 1-0.71 0.494 2.47 2.47 0 0 1-0.752 0.212z" fill="#fff" stroke-width=".265"/>
 </g>
</svg>
