<?xml version="1.0" encoding="UTF-8"?>
<svg width="32" height="32" enable-background="new 0 0 1000 1000" version="1.1" viewBox="0 0 32 32" xml:space="preserve" xmlns="http://www.w3.org/2000/svg"><g transform="matrix(.0321 0 0 .0321 -.0338 -.034)" fill="#fff"><g transform="matrix(.1 0 0 -.1 0 511)" fill="#fff"><path d="m6071 2275 330-330-1619-1617-1617-1619-659 659v-1753h1753l-659 659 1619 1617 1617 1619 659-659v1753h-1753z" fill="#fff"/></g></g><path d="m3.43 1.5h25.1c1.07 0 1.93 0.862 1.93 1.93v25.1c0 1.07-0.862 1.93-1.93 1.93h-25.1c-1.07 0-1.93-0.862-1.93-1.93v-25.1c0-1.07 0.862-1.93 1.93-1.93z" fill="none" stroke="#fff" stroke-linecap="round" stroke-linejoin="round" stroke-width="3" style="paint-order:markers stroke fill"/></svg>
