<?xml version="1.0" encoding="UTF-8" standalone="no"?>
<!-- Uploaded to: SVG Repo, www.svgrepo.com, Generator: SVG Repo Mixer Tools -->

<svg
   width="32"
   height="32"
   viewBox="62.37 70.49 32 32"
   version="1.1"
   id="svg870"
   sodipodi:docname="tiktok.svg"
   inkscape:version="1.1 (c68e22c387, 2021-05-23)"
   xmlns:inkscape="http://www.inkscape.org/namespaces/inkscape"
   xmlns:sodipodi="http://sodipodi.sourceforge.net/DTD/sodipodi-0.dtd"
   xmlns="http://www.w3.org/2000/svg"
   xmlns:svg="http://www.w3.org/2000/svg">
  <defs
     id="defs874" />
  <sodipodi:namedview
     id="namedview872"
     pagecolor="#ffffff"
     bordercolor="#666666"
     borderopacity="1.0"
     inkscape:pageshadow="2"
     inkscape:pageopacity="0.0"
     inkscape:pagecheckerboard="true"
     showgrid="false"
     inkscape:zoom="23.06"
     inkscape:cx="29.986991"
     inkscape:cy="17.541197"
     inkscape:window-width="3440"
     inkscape:window-height="1377"
     inkscape:window-x="-8"
     inkscape:window-y="-8"
     inkscape:window-maximized="1"
     inkscape:current-layer="svg870" />
  <rect
     style="fill:#ffffff;fill-opacity:1;stroke-width:2;stroke-linejoin:round;stroke-dashoffset:12.8"
     id="rect7237"
     width="25.238508"
     height="28.100607"
     x="65.622383"
     y="71.790955"
     rx="7.5590601"
     ry="7.5590601" />
  <path
     d="m 64.911135,94.286453 v 0.003 l 0.08881,0.252628 c -0.0102,-0.0294 -0.0432,-0.118814 -0.08881,-0.255628 z"
     fill="#69c9d0"
     id="path856"
     style="stroke-width:1" />
  <path
     d="m 486.85,701.51 a 22.75,22.75 0 0 1 -1,-6.73 v -0.16 a 24.53,24.53 0 0 0 1,6.89 z m 49.59,-6.89 v 0.16 a 23.07,23.07 0 0 1 -1,6.73 24.89,24.89 0 0 0 1,-6.89 z"
     fill="none"
     id="path862" />
  <path
     d="M 89.036667,70.490001 H 67.703334 c -2.945334,0 -5.333334,2.388 -5.333334,5.333333 v 21.333333 c 0,2.945333 2.388,5.333333 5.333334,5.333333 H 89.036667 C 91.982,102.49 94.37,100.102 94.37,97.156667 V 75.823334 c 0,-2.945333 -2.388,-5.333333 -5.333333,-5.333333 z M 90.37,83.156667 c -2.642666,0 -4.59,-0.726666 -6,-1.796666 v 9.463333 c 0,4.227333 -3.439334,7.666667 -7.666665,7.666667 -4.227335,0 -7.666668,-3.439334 -7.666668,-7.666667 0,-4.227333 3.439333,-7.666667 7.666668,-7.666667 h 1.333333 v 3.333334 h -1.333333 c -2.389335,0 -4.333335,1.944 -4.333335,4.333333 0,2.389333 1.944,4.333333 4.333335,4.333333 2.389333,0 4.333331,-1.944 4.333331,-4.333333 V 74.490001 H 84.37 c 0.012,0.882 0.355333,5.333333 6,5.333333 z"
     id="path6444"
     style="stroke-width:1;fill:#30cad5;fill-opacity:1" />
</svg>
