<?xml version="1.0" encoding="UTF-8"?>
<svg width="32" height="32" clip-rule="evenodd" fill-rule="evenodd" image-rendering="optimizeQuality" shape-rendering="geometricPrecision" text-rendering="geometricPrecision" version="1.1" viewBox="0 0 32 32" xmlns="http://www.w3.org/2000/svg">
 <path d="m4 1.94h24.8l0.0555 19.1-18.6 8.52-6.3-5.63z" fill="#fff" stroke-width="0"/>
 <path d="m4.82 2.89v20.4h6.81v3.87c0.105-0.1 0.164-0.154 0.221-0.211 1.15-1.15 2.3-2.29 3.44-3.44 0.163-0.164 0.326-0.231 0.557-0.23 2.38 0.0078 4.76 0.0093 7.14-0.0046 0.175-0.0011 0.392-0.0914 0.517-0.214 1.48-1.46 2.95-2.94 4.43-4.41 0.166-0.164 0.226-0.328 0.226-0.557-0.0056-4.96-0.0043-9.92-0.0043-14.9v-0.355h-23.3zm18.4 14.5h-2.83v-8.65h2.83zm-7.74-8.65v8.64h-2.88v-8.64zm-7.73 23.2v-3.83h-7.75c-0.00778-0.16-0.019-0.284-0.019-0.409l-6.72e-4 -5.74v-4.39c6.72e-4 -3.82 0.00192-7.65 0.00413-11.5 9.6e-5 -0.208 0.0371-0.425 0.102-0.623 0.571-1.74 1.16-3.47 1.73-5.21 0.0737-0.225 0.166-0.306 0.407-0.308h0.0115c9.48 0.00739 19 0.00634 28.5 0.00634 0.0929-1.92e-4 0.186 0 0.318 0v0.402c0 6.2-0.0016 12.4 0.0055 18.6v0.0121c-0.0022 0.252-0.079 0.428-0.259 0.607-2.75 2.74-5.5 5.49-8.24 8.24-0.182 0.183-0.36 0.259-0.619 0.257-1.67-0.0118-3.34 0.0018-5.01-0.013-0.32-0.0029-0.548 0.0807-0.776 0.313-1.1 1.13-2.22 2.24-3.34 3.34-0.106 0.105-0.274 0.209-0.414 0.211-0.699 0.0069-1.4 0.0092-2.1 0.0096h-0.42c-0.653-3.84e-4 -1.31-0.0017-1.96-0.0025-0.0329 0-0.0658-0.0118-0.126-0.0234z" fill="#6441a5"/>
</svg>
