<?xml version="1.0" encoding="UTF-8"?>
<svg width="18" height="18" version="1.1" viewBox="0 0 18 18" xml:space="preserve" xmlns="http://www.w3.org/2000/svg">
  

  

  

  
  
  
  

<g transform="scale(1.03 .974)" fill="#fff" aria-label="U"><path d="m3.9 3.08h2.33v7.87c0 0.704 0.215 1.28 0.645 1.72 0.43 0.442 1.02 0.663 1.77 0.663 0.842 0 1.5-0.215 1.96-0.645 0.472-0.436 0.707-1.03 0.707-1.78v-7.82h2.33v8c0 1.35-0.454 2.41-1.36 3.17-0.901 0.764-2.11 1.15-3.62 1.15-1.52 0-2.7-0.373-3.53-1.12-0.824-0.746-1.24-1.81-1.24-3.21z"/></g><path d="m3 16v2h12v-2z" color="#000000" fill="#fff" style="-inkscape-stroke:none"/></svg>
