<?xml version="1.0" encoding="UTF-8"?>
<svg width="512px" height="512px" enable-background="new 0 0 32 32" version="1.1" viewBox="0 0 32 32" xml:space="preserve" xmlns="http://www.w3.org/2000/svg"><g transform="translate(0 .625)" fill="#e64646"><g fill="#e64646">
	<g fill="#e64646">
		<path class="active-path" d="m14.7 15.8c-0.456-0.983-0.708-2.1-0.708-3.35s0.252-2.49 0.708-3.66c0.455-1.17 1.11-2.27 1.93-3.2 0.814-0.938 1.78-1.72 2.86-2.27 1.08-0.551 2.26-0.865 3.5-0.865s2.43 0.252 3.5 0.707c1.08 0.456 2.05 1.12 2.86 1.93 0.813 0.814 1.47 1.78 1.93 2.86 0.457 1.08 0.708 2.26 0.708 3.5s-0.252 2.43-0.708 3.5c-0.455 1.08-1.11 2.05-1.93 2.86-0.813 0.814-12.3 11.2-13.4 11.6-1.08-0.456-12.6-10.8-13.4-11.6s-1.47-1.78-1.93-2.86c-0.455-1.08-0.707-2.26-0.707-3.5s0.252-2.43 0.707-3.5c0.456-1.08 1.11-2.05 1.93-2.86 0.814-0.814 1.78-1.47 2.86-1.93 1.08-0.455 2.26-0.707 3.5-0.707s2.43 0.314 3.5 0.863c1.08 0.55 2.05 1.33 2.86 2.27 0.814 0.939 1.47 2.03 1.93 3.2 0.455 1.17 0.707 2.42 0.707 3.66s-0.252 2.36-0.707 3.35c-0.456 0.983-1.11 1.83-1.93 2.52" fill="#e64646" data-old_color="#ffffff" data-original="#000000"/>
	</g>
</g></g> </svg>
